<svg xmlns="http://www.w3.org/2000/svg" viewBox="0 0 220 220"><rect width="220" height="220" rx="40" fill="#EAF1FF"/><circle cx="110" cy="110" r="80" fill="#DCE8FF"/><path d="M110 45v58" stroke="#1D4ED8" stroke-width="10" stroke-linecap="round"/><path d="M110 70c-22 4-36 17-44 37-8 19-7 49 5 68 7 12 20 18 31 14 13-4 18-18 18-31V70Z" fill="#2563EB" opacity=".95"/><path d="M110 70c22 4 36 17 44 37 8 19 7 49-5 68-7 12-20 18-31 14-13-4-18-18-18-31V70Z" fill="#3B82F6" opacity=".95"/><path d="M92 102c-12 10-16 24-13 41" stroke="#fff" stroke-width="7" stroke-linecap="round" opacity=".8"/><path d="M128 102c12 10 16 24 13 41" stroke="#fff" stroke-width="7" stroke-linecap="round" opacity=".8"/></svg>